<svg xmlns="http://www.w3.org/2000/svg" xmlns:xlink="http://www.w3.org/1999/xlink" width="500" zoomAndPan="magnify" viewBox="0 0 375 374.999991" height="500" preserveAspectRatio="xMidYMid meet" version="1.0"><defs><clipPath id="dee53ccb89"><path d="M 4.453125 207 L 6 207 L 6 209 L 4.453125 209 Z M 4.453125 207 " clip-rule="nonzero"/></clipPath></defs><path fill="#0ea6dd" d="M 174.398438 356.789062 C 170.078125 348.78125 164.742188 340.851562 160.828125 335.335938 L 115.238281 361.667969 C 96.59375 372.4375 79.378906 374.945312 65.703125 370.410156 C 64.125 369.886719 62.585938 369.269531 61.101562 368.554688 C 61.070312 365.488281 62.351562 363.351562 64.632812 361.097656 C 80.597656 345.328125 96.460938 329.445312 112.273438 313.53125 C 122.578125 303.15625 132.742188 292.621094 143.746094 281.375 C 146.582031 286.332031 148.78125 290.210938 150.984375 294.070312 C 157.859375 306.085938 162.820312 318.785156 167.019531 331.765625 C 169.691406 340.023438 172.050781 348.402344 174.398438 356.789062 Z M 174.398438 356.789062 " fill-opacity="1" fill-rule="nonzero"/><path fill="#fc0d46" d="M 325.847656 240.039062 L 201.621094 311.769531 C 201.148438 304.109375 200.652344 296.394531 200.351562 288.667969 C 200.304688 287.527344 201.679688 286.195312 202.644531 285.195312 C 206.933594 280.785156 211.394531 276.539062 215.644531 272.09375 C 219.242188 268.332031 219.316406 264.328125 215.617188 260.679688 C 213.101562 258.191406 210.324219 255.238281 207.148438 254.355469 C 204.648438 253.667969 201.355469 255.8125 197.933594 256.859375 C 197.394531 249.804688 196.988281 242.617188 196.238281 235.472656 C 195.824219 231.550781 196.90625 228.707031 199.789062 225.890625 C 211.976562 214.007812 223.988281 201.957031 235.902344 189.8125 C 247.164062 178.332031 252.4375 163.636719 256.566406 148.621094 C 258.675781 140.972656 249.972656 131.804688 242.328125 133.585938 C 227.445312 137.054688 213.101562 142.449219 201.75 153.082031 C 188.804688 165.195312 176.589844 178.078125 164.007812 190.570312 C 162.636719 191.9375 160.84375 193.90625 159.300781 193.863281 C 150.535156 193.640625 141.78125 192.890625 133.5625 192.363281 C 134.484375 188.53125 136.820312 184.5 135.664062 182.429688 C 133.410156 178.425781 129.523438 175.035156 125.621094 172.433594 C 124.246094 171.496094 120.445312 172.96875 118.480469 174.363281 C 115.429688 176.539062 112.578125 179.292969 110.398438 182.339844 C 105.320312 189.414062 98.632812 190.84375 90.550781 189.59375 C 84.664062 188.6875 78.683594 188.488281 72.273438 187.925781 C 77.84375 179.875 77.671875 178.148438 71.328125 171.863281 C 65.402344 165.992188 62.390625 166.003906 56.332031 171.980469 C 52.59375 175.667969 49.097656 179.628906 45.128906 183.03125 C 43.421875 184.46875 40.769531 185.578125 38.570312 185.519531 C 37.335938 185.492188 36.09375 185.460938 34.867188 185.429688 L 34.867188 72.003906 C 34.867188 20.9375 71.03125 0.046875 115.246094 25.578125 L 325.851562 147.191406 C 370.058594 172.734375 370.058594 214.511719 325.847656 240.039062 Z M 325.847656 240.039062 " fill-opacity="1" fill-rule="nonzero"/><path fill="#0ea6dd" d="M 107.9375 246.082031 C 107.046875 247.238281 106.582031 248.011719 105.972656 248.625 C 82.320312 272.3125 58.691406 296.007812 34.949219 319.601562 C 34.886719 318.175781 34.863281 316.722656 34.863281 315.242188 L 34.863281 225.214844 C 28.457031 219.988281 18.074219 212.640625 5.789062 208.136719 C 15.472656 210.828125 25.160156 213.527344 34.863281 216.160156 C 35.210938 216.269531 35.582031 216.367188 35.9375 216.460938 C 58.84375 222.703125 81.300781 230.097656 101.835938 242.363281 C 103.808594 243.535156 105.75 244.742188 107.9375 246.082031 Z M 107.9375 246.082031 " fill-opacity="1" fill-rule="evenodd"/><g clip-path="url(#dee53ccb89)"><path fill="#e01c65" d="M 5.789062 208.136719 L 5.78125 208.136719 C 5.453125 208.015625 5.128906 207.894531 4.796875 207.773438 " fill-opacity="1" fill-rule="evenodd"/></g></svg>